<?xml version="1.0" encoding="iso-8859-1"?>
<!-- Generator: Adobe Illustrator 19.0.0, SVG Export Plug-In . SVG Version: 6.00 Build 0)  -->
<svg xmlns="http://www.w3.org/2000/svg" xmlns:xlink="http://www.w3.org/1999/xlink" version="1.1" id="Capa_1" x="0px" y="0px" viewBox="0 0 463.521 463.521" style="enable-background:new 0 0 463.521 463.521;" xml:space="preserve" width="512px" height="512px">
<g>
	<g>
		<path d="M395.779,35.2C381.147,4.438,344.347-8.638,313.585,5.994c-12.802,6.09-23.116,16.404-29.206,29.206    c-23.609,2.285-41.627,22.12-41.64,45.84c-0.022,3.91,3.13,7.098,7.04,7.12c0.013,0,0.027,0,0.04,0h180.28    c3.91,0,7.08-3.17,7.08-7.08C437.198,57.429,419.308,37.602,395.779,35.2z M257.739,73.92c1.345-5.829,4.296-11.164,8.52-15.4    c5.987-5.98,14.098-9.346,22.56-9.36h1.08c2.665-0.284,4.941-2.05,5.88-4.56c9.443-24.51,36.968-36.725,61.479-27.281    c12.539,4.831,22.45,14.742,27.281,27.281c1.082,2.794,3.805,4.604,6.8,4.52c14.877,0.028,27.773,10.304,31.12,24.8H257.739z" fill="#c2b0ff"/>
	</g>
</g>
<g>
	<g>
		<path d="M438.179,367l-46.4-52h18.64c3.91-0.005,7.076-3.179,7.071-7.089c-0.002-1.491-0.475-2.944-1.351-4.151l-44.76-58.56    h10.56c3.91-0.018,7.066-3.202,7.048-7.112c-0.005-1.162-0.296-2.305-0.848-3.328l-34.36-63.36l-0.24-0.52l-34.64-63.76    c-1.827-3.457-6.11-4.779-9.567-2.953c-1.259,0.665-2.288,1.694-2.953,2.953l-34.6,63.76l-34.36,63.32    c-2.165,3.256-1.28,7.651,1.976,9.816c1.168,0.777,2.541,1.189,3.944,1.184h10.56l-10.52,13.72l-1.68,25.48l27.6-36l4.56-5.96    c2.364-3.115,1.755-7.556-1.36-9.92c-1.231-0.934-2.734-1.44-4.28-1.44h-12.96l28.96-53.36l28.4-52.36l28.4,52.36l0.32,0.52    l28.68,52.84h-13c-3.91,0.059-7.031,3.276-6.972,7.186c0.025,1.668,0.639,3.274,1.732,4.534l4,5.56l40.4,52.44h-20    c-3.91,0.006-7.075,3.181-7.069,7.091c0.003,1.832,0.716,3.591,1.989,4.909l46.16,51.8h-83.4v14.2h99.04    c3.91,0.002,7.081-3.167,7.083-7.077C439.982,369.981,439.34,368.299,438.179,367z" fill="#c2b0ff"/>
	</g>
</g>
<g>
	<g>
		<polygon points="274.619,364.64 287.259,378.84 291.419,378.84 291.419,364.64   " fill="#c2b0ff"/>
	</g>
</g>
<g>
	<g>
		<path d="M343.739,253.4c-2.772-2.772-7.268-2.772-10.04,0l-13.92,14v-18.64c0.022-3.91-3.129-7.098-7.039-7.12    c-0.04,0-0.08,0-0.121,0c-3.91,0-7.08,3.17-7.08,7.08v54.8l-21.12-21.12c-2.772-2.772-7.268-2.772-10.04,0s-2.772,7.268,0,10.04    l31.16,31.32v109.4c0,3.921,3.179,7.1,7.1,7.1c3.921,0,7.1-3.179,7.1-7.1V287.44l24-24    C346.511,260.668,346.511,256.173,343.739,253.4z" fill="#c2b0ff"/>
	</g>
</g>
<g>
	<g>
		<path d="M148.659,59c-12.47-25.206-43.013-35.531-68.22-23.06C70.432,40.891,62.33,48.993,57.379,59    c-19.303,2.309-33.836,18.679-33.84,38.12c0,3.91,3.17,7.08,7.08,7.08c0.013,0,0.027,0,0.04,0h144.76c3.91,0,7.08-3.17,7.08-7.08    C182.495,77.68,167.962,61.309,148.659,59z M38.779,90c1.159-3.78,3.234-7.215,6.04-10h0.04c4.529-4.556,10.696-7.106,17.12-7.08    c2.973,0.003,5.649-1.802,6.76-4.56c7.335-18.954,28.646-28.374,47.601-21.039c9.662,3.739,17.3,11.377,21.039,21.039    c1.077,2.78,3.78,4.587,6.76,4.52c10.641,0.005,20.034,6.949,23.16,17.12H38.779z" fill="#c2b0ff"/>
	</g>
</g>
<g>
	<g>
		<path d="M278.619,390.4l-46.36-52h18.68c3.91,0,7.08-3.17,7.08-7.08c0-1.546-0.506-3.049-1.44-4.28l-44.8-58.44h10.56    c3.91-0.018,7.066-3.202,7.048-7.112c-0.005-1.162-0.296-2.305-0.848-3.328l-34.36-63.36l-0.24-0.52l-34.6-63.76    c-0.685-1.184-1.699-2.143-2.92-2.76c-3.435-1.866-7.733-0.595-9.6,2.84l-34.64,64l-34.36,63    c-2.165,3.256-1.281,7.651,1.975,9.816c1.18,0.785,2.568,1.197,3.985,1.184h10.56l-44.48,58c-2.607,2.914-2.358,7.39,0.557,9.997    c1.309,1.171,3.007,1.814,4.763,1.803h18.68l-46.08,51.76c-2.717,2.812-2.641,7.294,0.171,10.011    c1.317,1.273,3.077,1.986,4.909,1.989h98.92v-14.2h-83.2l46.36-52c2.607-2.914,2.357-7.39-0.557-9.997    c-1.299-1.162-2.98-1.804-4.723-1.803h-20l40.08-52.4l4.56-5.96c2.364-3.115,1.755-7.556-1.36-9.92    c-1.231-0.934-2.734-1.44-4.28-1.44h-12.88l28.96-53.36l28.4-52.36l28.4,52.36l0.32,0.52l28.68,52.84h-13.12    c-3.91-0.024-7.099,3.127-7.123,7.037c-0.011,1.756,0.632,3.454,1.803,4.763l4.28,5.52l40.2,52.44h-20    c-3.91,0.006-7.075,3.181-7.069,7.091c0.003,1.832,0.716,3.591,1.989,4.909l46.16,51.8h-83.4v14.2h99.08    c3.91,0.002,7.081-3.167,7.083-7.077C280.422,393.381,279.78,391.699,278.619,390.4z" fill="#c2b0ff"/>
	</g>
</g>
<g>
	<g>
		<path d="M184.139,276.8c-2.773-2.772-7.268-2.772-10.04,0l-14.12,14.12v-18.8c0-3.921-3.179-7.1-7.1-7.1    c-3.921,0-7.1,3.179-7.1,7.1v54.8l-21.12-21.12c-3.124-2.352-7.563-1.726-9.915,1.398c-1.911,2.538-1.897,6.039,0.035,8.562    l31.16,31.16v109.4c-0.066,3.91,3.049,7.133,6.959,7.199c0.054,0.001,0.107,0.001,0.161,0.001c3.91,0,7.08-3.17,7.08-7.08v-145.6    l24-24C186.911,284.068,186.911,279.573,184.139,276.8z" fill="#c2b0ff"/>
	</g>
</g>
<g>
</g>
<g>
</g>
<g>
</g>
<g>
</g>
<g>
</g>
<g>
</g>
<g>
</g>
<g>
</g>
<g>
</g>
<g>
</g>
<g>
</g>
<g>
</g>
<g>
</g>
<g>
</g>
<g>
</g>
</svg>
