<?xml version="1.0" encoding="iso-8859-1"?>
<!-- Generator: Adobe Illustrator 19.0.0, SVG Export Plug-In . SVG Version: 6.00 Build 0)  -->
<svg xmlns="http://www.w3.org/2000/svg" xmlns:xlink="http://www.w3.org/1999/xlink" version="1.1" id="Capa_1" x="0px" y="0px" viewBox="0 0 463.274 463.274" style="enable-background:new 0 0 463.274 463.274;" xml:space="preserve" width="512px" height="512px">
<g>
	<g>
		<path d="M174.057,267.352c-3.449,3.414-7.912,5.617-12.72,6.28c-7.321,0.65-14.656-1.075-20.92-4.92    c-11.04-6.04-23.52-17.6-36.92-36.52c12.426-0.692,24.507-4.34,35.24-10.64c10.4-6.36,19.32-8.44,26.36-7.32    c2.867,0.452,5.598,1.531,8,3.16c2.386,1.622,4.426,3.702,6,6.12c0.4,0.613,0.773,1.253,1.12,1.92    c5.67,0.808,11.227,2.271,16.56,4.36c-1.092-4.953-3.041-9.678-5.76-13.96c-2.594-4.073-5.981-7.583-9.96-10.32    c-4.13-2.804-8.829-4.661-13.76-5.44c-10.32-1.68-22.64,0.96-36.24,9.72c-15.56,10.04-38.08,8.76-40,8.64    c-3.893-0.365-7.345,2.496-7.71,6.389c-0.146,1.561,0.23,3.127,1.07,4.451c17.44,27.52,34.24,44,49.24,52    c8.892,5.305,19.261,7.592,29.56,6.52c8.759-1.207,16.785-5.54,22.6-12.2c0.64-0.72,1.267-1.467,1.88-2.24    c-0.979-0.717-1.994-1.385-3.04-2C181.377,269.425,177.792,268.072,174.057,267.352z" fill="#add9ff"/>
	</g>
</g>
<g>
	<g>
		<path d="M324.057,127.512c13.664-12.751,14.403-34.165,1.652-47.828c-0.531-0.569-1.082-1.12-1.652-1.651    c1.04-3.408,1.54-6.958,1.48-10.52c-0.427-15.388-11.198-28.544-26.2-32c-2.098-9.132-7.892-16.983-16-21.68    c-8.119-4.702-17.826-5.817-26.8-3.08C243.786-2.912,222.372-3.651,208.709,9.1c-0.569,0.531-1.12,1.082-1.651,1.651    c-8.975-2.727-18.678-1.612-26.8,3.08c-8.114,4.689-13.911,12.544-16,21.68c-9.132,2.098-16.983,7.892-21.68,16    c-2.819,4.872-4.372,10.373-4.52,16c-0.098,3.641,0.388,7.273,1.44,10.76c-2.677,2.487-4.933,5.391-6.68,8.6l-0.08-0.12    c-7.285,13.528-4.542,30.265,6.68,40.76c-1.052,3.487-1.538,7.119-1.44,10.76c0.14,5.47,1.609,10.824,4.28,15.6l0.24,0.44    c4.697,8.108,12.548,13.902,21.68,16c4.224,18.228,22.426,29.581,40.654,25.356c0.748-0.173,1.491-0.372,2.226-0.596    c12.751,13.664,34.165,14.403,47.828,1.652c0.569-0.531,1.12-1.082,1.652-1.652c3.499,1.056,7.146,1.542,10.8,1.44    c15.388-0.427,28.544-11.198,32-26.2c18.221-4.258,29.54-22.48,25.282-40.7C324.455,128.906,324.267,128.205,324.057,127.512z     M318.337,112.072c-1.538,2.996-3.809,5.555-6.6,7.44c-3.017,1.975-4.068,5.902-2.44,9.12c1.495,2.946,2.237,6.217,2.16,9.52    c-0.19,6.633-3.708,12.723-9.36,16.2c-2.81,1.708-5.997,2.697-9.28,2.88c-3.634,0.181-6.539,3.086-6.72,6.72    c-0.183,3.283-1.172,6.47-2.88,9.28c-3.477,5.652-9.567,9.171-16.2,9.36c-3.303,0.077-6.574-0.665-9.52-2.16    c-3.367-1.714-7.487-0.481-9.36,2.8c-1.778,2.61-4.15,4.763-6.92,6.28c-5.865,3.115-12.895,3.115-18.76,0    c-2.894-1.577-5.354-3.844-7.16-6.6c-1.975-3.017-5.902-4.068-9.12-2.44c-2.946,1.495-6.217,2.237-9.52,2.16    c-6.627-0.211-12.708-3.725-16.2-9.36c-1.708-2.81-2.697-5.997-2.88-9.28c-0.181-3.634-3.086-6.539-6.72-6.72    c-3.283-0.183-6.47-1.172-9.28-2.88c-2.835-1.679-5.201-4.045-6.88-6.88v-0.32c-1.521-2.747-2.358-5.821-2.44-8.96    c-0.077-3.303,0.665-6.574,2.16-9.52c1.714-3.367,0.481-7.487-2.8-9.36c-2.61-1.778-4.762-4.15-6.28-6.92    c-3.115-5.865-3.115-12.895,0-18.76l-0.16-0.16c1.565-2.889,3.818-5.349,6.56-7.16c3.017-1.975,4.068-5.902,2.44-9.12    c-1.5-3.013-2.216-6.357-2.08-9.72c0.093-3.265,1.001-6.455,2.64-9.28c1.655-2.757,3.963-5.065,6.72-6.72    c2.81-1.708,5.997-2.697,9.28-2.88c3.634-0.181,6.539-3.086,6.72-6.72c0.183-3.283,1.172-6.47,2.88-9.28    c1.709-2.783,4.089-5.093,6.92-6.72c2.824-1.643,6.014-2.55,9.28-2.64c3.303-0.077,6.574,0.665,9.52,2.16    c3.297,1.665,7.32,0.516,9.24-2.64c1.793-2.683,4.208-4.893,7.04-6.44c5.865-3.115,12.895-3.115,18.76,0    c2.894,1.576,5.354,3.844,7.16,6.6c1.963,3.032,5.892,4.1,9.12,2.48c2.946-1.495,6.217-2.237,9.52-2.16    c3.265,0.093,6.455,1,9.28,2.64c2.831,1.629,5.209,3.938,6.92,6.72c1.708,2.81,2.697,5.997,2.88,9.28    c0.18,3.634,3.086,6.539,6.72,6.72c3.283,0.183,6.47,1.172,9.28,2.88c5.624,3.419,9.167,9.424,9.44,16    c0.077,3.303-0.665,6.574-2.16,9.52c-1.714,3.367-0.481,7.487,2.8,9.36c2.61,1.778,4.762,4.15,6.28,6.92    C321.452,99.177,321.452,106.206,318.337,112.072z" fill="#add9ff"/>
	</g>
</g>
<g>
	<g>
		<path d="M345.457,365.832c-17.941-41.575-57.119-70.065-102.2-74.32c21.52-37.68,40.96-38.44,59.4-39.16    c11.12-0.44,21.92-0.84,33.2-7.12c3.328-2.053,4.362-6.415,2.309-9.743c-1.924-3.119-5.91-4.254-9.189-2.617    c-8.32,4.64-17.44,5-26.8,5.36c-20,0.76-41.04,1.56-63.36,33.64v-52.36c-4.707,0.709-9.493,0.709-14.2,0v52.36    c-22.28-32-43.32-32.88-63.32-33.64c-9.36-0.36-18.48-0.72-26.8-5.36c-3.224-2.213-7.631-1.393-9.844,1.831    c-2.213,3.224-1.393,7.631,1.831,9.844c0.393,0.27,0.813,0.499,1.252,0.685c11.24,6.28,22.08,6.68,33.2,7.12    c18.44,0.72,37.88,1.48,59.4,39.16c-45.126,4.213-84.358,32.709-102.32,74.32c-48.271,2.223-86.267,41.998-86.28,90.32    c-0.024,3.91,3.127,7.099,7.037,7.123c0.081,0,0.162,0,0.243-0.003h385.44c3.91,0,7.08-3.17,7.08-7.08    C431.551,407.928,393.665,368.158,345.457,365.832z M46.457,449.192c1.601-17.749,9.388-34.37,22-46.96v0.04    c14.287-14.319,33.693-22.352,53.92-22.32h0.64c2.814-0.084,5.311-1.827,6.36-4.44c21.82-56.532,85.336-84.672,141.868-62.852    c28.879,11.146,51.705,33.973,62.852,62.852c1.101,2.851,3.908,4.673,6.96,4.52c39.39-0.027,72.323,29.942,76,69.16H46.457z" fill="#add9ff"/>
	</g>
</g>
<g>
	<g>
		<path d="M231.813,58.552c-24.477-0.021-44.337,19.805-44.358,44.282c-0.01,11.758,4.653,23.039,12.962,31.358    c8.284,8.344,19.562,13.025,31.32,13c24.477,0.021,44.337-19.805,44.358-44.282C276.116,78.432,256.29,58.573,231.813,58.552z     M252.977,124.184c-11.773,11.753-30.843,11.736-42.596-0.036c-5.637-5.646-8.803-13.298-8.804-21.276    c-0.01-8,3.172-15.674,8.84-21.32c11.773-11.753,30.844-11.736,42.596,0.036C264.766,93.36,264.75,112.431,252.977,124.184z" fill="#add9ff"/>
	</g>
</g>
<g>
	<g>
		<path d="M376.909,219.661c-1.324-0.84-2.89-1.216-4.451-1.07c-1.96,0-24.48,1.4-40-8.64c-13.6-8.76-25.92-11.4-36.24-9.72    c-4.931,0.777-9.63,2.635-13.76,5.44c-3.979,2.737-7.366,6.247-9.96,10.32c-2.719,4.282-4.668,9.007-5.76,13.96    c5.333-2.088,10.89-3.551,16.56-4.36c0.347-0.667,0.72-1.307,1.12-1.92c1.562-2.461,3.602-4.583,6-6.24    c2.401-1.63,5.133-2.709,8-3.16c7.04-1.12,16,0.96,26.36,7.68c10.733,6.3,22.814,9.948,35.24,10.64    c-13.4,18.92-25.88,30.44-36.92,36.48c-6.263,3.845-13.599,5.57-20.92,4.92c-4.832-0.718-9.298-2.993-12.72-6.48    c-3.735,0.72-7.32,2.073-10.6,4c-1.046,0.615-2.061,1.282-3.04,2c0.587,0.773,1.213,1.52,1.88,2.24    c5.815,6.66,13.841,10.993,22.6,12.2c10.299,1.072,20.668-1.215,29.56-6.52c14.96-8,31.8-24.48,49.24-52    C381.191,226.129,380.211,221.755,376.909,219.661z" fill="#add9ff"/>
	</g>
</g>
<g>
</g>
<g>
</g>
<g>
</g>
<g>
</g>
<g>
</g>
<g>
</g>
<g>
</g>
<g>
</g>
<g>
</g>
<g>
</g>
<g>
</g>
<g>
</g>
<g>
</g>
<g>
</g>
<g>
</g>
</svg>
